<svg xmlns="http://www.w3.org/2000/svg" viewBox="0 0 109.17 96.06"><title>お気に入り</title><g id="レイヤー_2" data-name="レイヤー 2"><g id="レイヤー_1-2" data-name="レイヤー 1"><path d="M77.82,5.49a26.51,26.51,0,0,1,3.94.29A25.84,25.84,0,0,1,95.35,50.35L55.75,90.09a1.64,1.64,0,0,1-1.16.48,1.66,1.66,0,0,1-1.17-.48L13.82,50.35A25.85,25.85,0,0,1,27.42,5.78a26.37,26.37,0,0,1,3.93-.29A25.83,25.83,0,0,1,53.64,18.26a1.11,1.11,0,0,0,1.9,0A25.81,25.81,0,0,1,77.82,5.49m0-5.49h0A31.43,31.43,0,0,0,54.59,10.35,31.46,31.46,0,0,0,31.35,0a33,33,0,0,0-4.74.35A31.33,31.33,0,0,0,10,54.3L49.54,94a7.12,7.12,0,0,0,10.09,0L99.16,54.3A31.33,31.33,0,0,0,82.56.35,32.87,32.87,0,0,0,77.82,0Z"/></g></g></svg>