<svg xmlns="http://www.w3.org/2000/svg" width="618" height="64"><path d="M11.788 7.208v33.84c0 3.456.936 6.24 2.808 8.352 1.872 2.113 4.608 3.168 8.208 3.168s6.336-1.055 8.208-3.168c1.872-2.112 2.808-4.896 2.808-8.352V7.208h6.12v33.84c0 3.312-.708 6.276-2.124 8.892-1.416 2.617-3.396 4.669-5.94 6.156-2.544 1.489-5.569 2.232-9.072 2.232-3.456 0-6.469-.744-9.036-2.232a15.501 15.501 0 0 1-5.976-6.156c-1.417-2.616-2.124-5.58-2.124-8.892V7.208h6.12zM58.083 49.544c2.063 2.016 4.655 3.024 7.776 3.024 2.88 0 5.04-.731 6.48-2.196 1.44-1.464 2.16-3.444 2.16-5.94 0-2.16-.588-3.936-1.764-5.328-1.177-1.392-2.664-2.544-4.464-3.456a46.212 46.212 0 0 0-5.58-2.376 52.664 52.664 0 0 1-4.068-1.62 19.712 19.712 0 0 1-4.14-2.484c-1.296-1.008-2.365-2.304-3.204-3.888-.84-1.584-1.26-3.528-1.26-5.832 0-2.543.6-4.788 1.8-6.732 1.199-1.944 2.891-3.467 5.076-4.572 2.184-1.104 4.763-1.656 7.74-1.656 2.736 0 5.1.493 7.092 1.476 1.991.984 3.683 2.293 5.076 3.924a21.785 21.785 0 0 1 3.384 5.4L75.219 20.6a23.463 23.463 0 0 0-2.628-3.996 12.67 12.67 0 0 0-3.672-3.096c-1.416-.792-3.06-1.188-4.932-1.188-2.497 0-4.381.648-5.652 1.944-1.272 1.296-1.908 3.049-1.908 5.256 0 1.632.551 3.013 1.656 4.14 1.104 1.128 2.544 2.124 4.32 2.988a69.328 69.328 0 0 0 5.688 2.448c1.296.48 2.688 1.105 4.176 1.872a21.168 21.168 0 0 1 4.176 2.844c1.296 1.128 2.351 2.52 3.168 4.176.815 1.656 1.224 3.636 1.224 5.94 0 2.833-.637 5.34-1.908 7.524-1.272 2.185-3.049 3.876-5.328 5.076-2.28 1.199-4.98 1.8-8.1 1.8-4.128 0-7.765-1.284-10.908-3.852-3.145-2.567-5.508-5.916-7.092-10.044l5.184-3.096c1.536 3.456 3.336 6.192 5.4 8.208zM93.435 57.608h-6.84l23.4-52.92 23.4 52.92h-6.84l-6.408-15.12H99.843l-6.408 15.12zm24.264-20.879l-7.704-18.144-7.704 18.144h15.408zM162.194 32.048h23.4c0 3.504-.529 6.829-1.584 9.972-1.057 3.144-2.617 5.94-4.68 8.388-2.064 2.448-4.597 4.381-7.596 5.796-3 1.415-6.42 2.124-10.26 2.124-3.648 0-7.032-.637-10.152-1.908-3.121-1.271-5.832-3.071-8.136-5.4-2.304-2.328-4.093-5.076-5.364-8.244-1.272-3.168-1.908-6.624-1.908-10.368 0-3.744.636-7.2 1.908-10.368 1.271-3.168 3.06-5.916 5.364-8.244 2.304-2.328 5.016-4.127 8.136-5.4 3.12-1.271 6.503-1.908 10.152-1.908 4.655 0 8.771.913 12.348 2.736 3.575 1.825 6.444 4.489 8.604 7.992l-4.32 3.96c-1.584-2.688-3.792-4.788-6.624-6.3-2.833-1.512-6.168-2.268-10.008-2.268-3.553 0-6.768.84-9.648 2.52-2.88 1.681-5.173 3.996-6.876 6.948-1.705 2.952-2.556 6.397-2.556 10.332 0 3.888.852 7.321 2.556 10.296 1.703 2.977 3.996 5.304 6.876 6.984 2.88 1.681 6.095 2.52 9.648 2.52 3.359 0 6.239-.659 8.64-1.98 2.399-1.32 4.344-3.071 5.832-5.256a19.552 19.552 0 0 0 3.024-7.164h-16.776v-5.76zM202.873 7.208v50.4h-6.12v-50.4h6.12zM246.432 57.608h-6.12l6.12-52.92 20.16 36.504 20.16-36.504 6.12 52.92h-6.12l-3.744-34.056-16.416 29.376-16.416-29.376-3.744 34.056zM307.992 57.608h-6.84l23.4-52.92 23.4 52.92h-6.841l-6.407-15.12H314.4l-6.408 15.12zm24.264-20.879l-7.704-18.144-7.704 18.144h15.408zM376.752 32.048h23.399c0 3.504-.528 6.829-1.584 9.972-1.057 3.144-2.616 5.94-4.681 8.388-2.064 2.448-4.596 4.381-7.596 5.796s-6.42 2.124-10.26 2.124c-3.648 0-7.032-.637-10.152-1.908-3.12-1.271-5.832-3.071-8.136-5.4-2.304-2.328-4.093-5.076-5.364-8.244s-1.908-6.624-1.908-10.368c0-3.744.637-7.2 1.908-10.368s3.061-5.916 5.364-8.244c2.304-2.328 5.016-4.127 8.136-5.4 3.12-1.271 6.504-1.908 10.152-1.908 4.655 0 8.771.913 12.348 2.736 3.576 1.825 6.444 4.489 8.604 7.992l-4.32 3.96c-1.584-2.688-3.792-4.788-6.624-6.3-2.832-1.512-6.168-2.268-10.008-2.268-3.553 0-6.768.84-9.648 2.52-2.879 1.681-5.172 3.996-6.875 6.948-1.705 2.952-2.557 6.397-2.557 10.332 0 3.888.852 7.321 2.557 10.296 1.703 2.977 3.996 5.304 6.875 6.984 2.881 1.681 6.096 2.52 9.648 2.52 3.359 0 6.239-.659 8.641-1.98 2.398-1.32 4.344-3.071 5.832-5.256a19.567 19.567 0 0 0 3.023-7.164h-16.775v-5.76zM409.871 57.608h-6.84l23.399-52.92 23.4 52.92h-6.84l-6.408-15.12h-20.304l-6.407 15.12zm24.264-20.879l-7.704-18.144-7.704 18.144h15.408zM456.31 7.208h35.28l-26.496 44.64h25.057v5.76h-35.28l26.496-44.64H456.31v-5.76zM508.51 7.208v50.4h-6.12v-50.4h6.12zM567.909 7.208v52.92l-38.16-40.032v37.512h-6.12V4.688l38.16 40.032V7.208h6.12zM587.709 51.849h22.68v5.76h-28.8v-50.4h28.8v5.76h-22.68v14.4h21.24v5.76h-21.24v18.72z"/></svg>