<svg id="レイヤー_1" xmlns="http://www.w3.org/2000/svg" width="662.66" height="69.585"><style></style><linearGradient id="SVGID_1_" gradientUnits="userSpaceOnUse" x1="236.969" y1="-24.942" x2="237.676" y2="-25.649"><stop offset="0" stop-color="#00a53b"/><stop offset=".983" stop-color="#133618"/></linearGradient><path d="M7.028 8.565s-.072-.528.558-.544l22.4-.581c.416-.011.497.332.501.503.004.158-.075.461-.447.471-8.428.219-8.536 1.739-8.354 8.719l.766 29.541c.25 9.627 7.344 16.271 19.124 15.967 13.087-.34 16.73-7.73 16.874-20.27l.255-26.198c.105-6.457-3.117-8.433-8.615-8.29-.459.012-.5-.506-.5-.506s.045-.447.49-.458l19.105-.495a.456.456 0 0 1 .505.445c-.001.187-.037.503-.364.557-6.178 1.014-7.219 3.089-7.287 14.648l-.18 21.893c0 10.852-3.267 21.975-22.337 22.469-15.424.4-24.194-5.921-24.553-19.756l-.761-29.353c-.18-6.925-.343-8.424-6.581-8.33-.587.015-.599-.432-.599-.432zM110.617 8.295l-.421 11.549s0 .537-.556.567c-.27.017-.469-.281-.509-.414-2.519-8.362-7.062-13.242-13.318-13.471-4.579-.167-11.24 2.865-11.489 9.688-.569 15.606 30.282 13.831 29.608 32.335-.276 7.569-7.463 17.319-21.761 16.797-4.112-.148-12.921-1.593-14.817-3.438-1.74-1.685-1.718-11.269-1.864-14.752-.005-.138.12-.358.408-.368.259-.01.444.192.475.287 1.358 4.161 5.469 16.024 16.614 16.432 6.355.231 13.593-3.248 13.893-11.472.613-16.821-30.317-12.896-29.601-32.521.276-7.57 6.173-15.309 20.098-14.801 4.572.167 8.757.857 12.974 3.138.092.049.273.253.266.444zM178.876 62.766c-5.354-.58-6.536-1.866-10.708-12.385L154.323 14.33c-2.369-6.312-3.798-9.498-5.019-9.633-.847-.094-1.963-.243-3.14 2.465-.409.958-1.021 2.45-1.288 3.125-.252.726-11.682 31.024-11.682 31.024-7.086 18.08-8.789 20.624-14.456 21.439a.596.596 0 0 0-.506.597c0 .516.576.545.576.545h16.824s.555 0 .555-.545c0-.372-.317-.545-.531-.562-3.508-.277-5.548-1.421-5.548-4.362 0-1.777.468-3.085 1.683-6.266l3.928-11.188h20.854l4.395 12.124c.936 2.432 1.497 4.77 1.497 6.359 0 1.807-1.226 2.741-5.874 3.311-.158.018-.484.082-.484.571 0 .528.538.558.538.558h22.235s.501-.015.512-.531c.007-.415-.349-.577-.516-.595zm-42.129-23.887l4.77-12.438c.748-1.963 3.46-8.603 4.583-12.343h.186c.281 1.028 9.351 24.782 9.351 24.782h-18.89zM369.575 35.044c0 17.761-12.317 30.541-30.656 30.541-18.337 0-30.655-12.78-30.655-30.541 0-17.76 12.317-30.54 30.655-30.54 18.339 0 30.656 12.781 30.656 30.54zm-52.79 0c0 17.761 6.946 28.661 22.134 28.661 15.19 0 22.136-10.9 22.136-28.661 0-17.76-6.945-28.661-22.136-28.661-15.189.001-22.134 10.902-22.134 28.661zM243.062 39.021h-21.486s-.665.028-.665.651c0 .495.436.703.646.707 6.563.082 7.922 1.525 7.57 8.412l-.366 7.013c-.181 4.303-3.56 7.762-13.054 7.762-7.029 0-24.008-4.768-24.008-28.147 0-15.149 10.133-28.895 24.192-28.895 10.966 0 17.329 6.345 20.397 16.985.002.007.013.017.016.023a.56.56 0 0 0 .543.478c.005 0 .008-.002.012-.003l.005.005.01-.008a.566.566 0 0 0 .531-.557c.003-.01.009-.021.009-.031-.054-3.887.162-8.328-.233-11.601a.426.426 0 0 0-.038-.108.564.564 0 0 0-.155-.257c-.006-.008-.016-.023-.021-.026-3.675-2.973-9.863-6.771-21.444-6.771-19.626 0-32.955 14.215-32.955 31.328 0 13.091 9.22 29.456 33.503 29.456 9.666 0 16.575-3.353 20.31-5.602.005-.004.016-.021.022-.029.322-.153.306-.555.306-.555l.175-10.459c.088-6.86.857-8.318 6.247-8.412.194-.003.6-.241.6-.685.001-.072-.041-.674-.669-.674zM277.325 6.127h-21.756c-.497 0-.554.545-.554.545s.016.603.554.603c5.454 0 6.466 1.531 6.466 8.413v38.715c0 6.869-1.012 8.321-6.446 8.41-.008 0-.013-.005-.021-.005-.01 0-.018.005-.028.007h-.014c-.005 0-.012.004-.017.006a.58.58 0 0 0-.516.583c0 .331.257.598.575.598l.007-.002.006.007h20.413c.017.002.031.01.047.01a.587.587 0 0 0 .575-.598c0-.009-.005-.017-.006-.026l.003-.002-.004-.006a.577.577 0 0 0-.441-.535.172.172 0 0 0-.085-.034c-5.296-.085-6.31-1.529-6.31-8.412V15.688c.001-6.923 1.025-8.345 7.564-8.413.538 0 .536-.575.536-.575s.072-.573-.548-.573zM526.908 6.945h-21.756c-.496 0-.554.54-.554.54s.016.596.554.596c5.454 0 6.466 1.515 6.466 8.329v38.327c0 6.801-1.013 8.238-6.445 8.325-.008 0-.014-.005-.021-.005-.011 0-.018.005-.029.007h-.013c-.006 0-.013.007-.018.007a.578.578 0 0 0-.515.579c0 .326.257.591.574.591l.008-.002.005.008h20.415c.016 0 .03.009.046.009a.583.583 0 0 0 .573-.592c0-.01-.002-.017-.003-.026l.002-.004-.004-.004a.578.578 0 0 0-.441-.531.183.183 0 0 0-.084-.034c-5.298-.082-6.311-1.514-6.311-8.327V16.411c0-6.855 1.023-8.262 7.564-8.33.538 0 .536-.569.536-.569s.071-.567-.549-.567zM438.958 6.932h-18.287c-.472 0-.582.582-.582.582s.054.619.525.619c6.35.88 7.896 3.038 7.896 8.356 0 8.795-.181 24.718-.453 35.642-4.309-4.773-33.455-35.959-40.836-44.973-.105-.105-.209-.228-.429-.228h-13.473l-.001.001-.018-.001c-.3 0-.538.238-.564.537l-.013.011.01.013c-.002.009-.005.016-.005.025 0 .288.206.517.476.566.026.02.053.032.075.034 5.787.577 8.683 1.822 8.683 8.463v34.533c0 9.979-1.847 11.21-7.151 11.866h-.003l-.013.002a.135.135 0 0 0-.028.004c-.003 0-.006.003-.01.005a.622.622 0 0 0-.568.593l-.015.025.01.009c0 .353.28.638.624.638.041 0 .076-.017.116-.023h17.027l.005-.005a.616.616 0 0 0 .609-.624.618.618 0 0 0-.56-.621c-.016-.002-.032-.002-.05-.002l-.018.002c-6.069-.729-7.259-1.834-7.259-11.868V15.101h.271c13.865 17.924 38.159 40.969 43.288 48.848.13.131.257.284.508.284h.804c.139 0 .285-.05.431-.227.104-.126.086-.37.089-.467.454-16.211 1.158-43.674 1.158-47.049 0-5.224 1.715-7.47 7.812-8.354.431 0 .52-.509.52-.65a.574.574 0 0 0-.601-.554zM601.016 6.933H582.73c-.471 0-.583.582-.583.582s.056.62.527.62c6.35.879 7.896 3.037 7.896 8.356 0 8.795-.181 24.718-.453 35.642-4.31-4.772-33.456-35.958-40.837-44.972-.104-.106-.208-.228-.431-.228h-13.471l-.001.002-.017-.002c-.3 0-.538.238-.565.537l-.013.011.008.013c-.001.009-.005.017-.005.026 0 .288.206.517.476.565.027.02.055.032.077.034 5.786.577 8.683 1.823 8.683 8.465v34.532c0 9.979-1.847 11.211-7.152 11.866h-.001l-.015.002-.027.004c-.003 0-.007.003-.011.006a.624.624 0 0 0-.567.594c-.01.013-.015.024-.015.024l.008.009c0 .353.28.638.626.638.04 0 .076-.015.116-.023h17.027l.004-.003c.337 0 .61-.279.61-.626a.619.619 0 0 0-.56-.621c-.017-.002-.033-.002-.051-.002-.006 0-.012.004-.019.004-6.069-.733-7.259-1.834-7.259-11.87V15.102h.272c13.864 17.923 38.158 40.97 43.288 48.847.13.132.257.284.507.284h.805c.139 0 .283-.051.431-.227.104-.126.086-.37.088-.467.455-16.212 1.158-43.674 1.158-47.049 0-5.224 1.716-7.469 7.812-8.354.432 0 .52-.507.52-.65a.571.571 0 0 0-.6-.553zM497.252 50.841c0-.057.06-.704-.547-.704h-1.033s-.345.01-.524.329c-5.221 9.535-13.048 11.705-20.434 11.705h-7.021c-5.221 0-5.85-.83-5.85-7.959V15.884c0-6.86 1.025-8.264 8.25-8.33.186-.002.569-.115.569-.653 0-.539-.583-.596-.583-.596h-22.862s-.585.1-.585.567c0 .468.367.68.544.682 5.906.077 6.925 1.498 6.925 8.33v38.328c0 6.846-1.022 8.257-8.29 8.329-.202.001-.619.114-.619.555 0 .665.605.636.605.636h30.896c2.791 0 5.76 0 8.73.091 2.805.089 5.689.258 8.578.434.002 0 .006-.004.009-.004.008 0 .014.004.02.004.495 0 .593-.505.593-.505s2.629-12.855 2.629-12.911zM655.4 51.133h-.455a.55.55 0 0 0-.468.281 1.473 1.473 0 0 0-.027.021c-5.617 9.643-7.379 11.271-15.841 11.271h-11.88c-4.411 0-5.761-.739-5.761-3.889V35.99c0-.566.501-.51.501-.51h9.577c6.373 0 7.959 1.699 8.951 8.621 0 .304.292.361.374.361h.373c.192 0 .387-.146.387-.413V24.696c0-.084-.056-.424-.402-.424h-.313l-.011-.004h-.032a.407.407 0 0 0-.398.389c0 .004-.004.008-.005.01-1.302 6.506-2.145 7.662-9.732 7.662h-8.768c-.057 0-.501 0-.501-.512V12.14c0-3.242.81-3.706 5.31-3.706h7.74c8.323 0 10.898 2.959 14.921 8.083.241.249.452.252.452.252s.276-.028.276-.344c0-.314-1.729-8.997-1.729-8.997l-.027-.05a.553.553 0 0 0-.514-.442h-.009c-.006 0-.008-.005-.013-.005h-41.488c-.564 0-.579.541-.579.541s.016.597.622.597c6.283 0 7.297 1.512 7.297 8.331 0 13.337-.18 26.301-.361 38.343-.086 6.851-1.027 8.262-7.889 8.33-.579 0-.569.584-.569.584s-.062.597.569.597h47.295c.356 0 .507-.333.544-.509.716-3.515 1.983-9.763 2.843-12.302 0-.297-.26-.31-.26-.31z"/></svg>